<mxfile host="app.diagrams.net" modified="2024-03-02T15:17:23.242Z" agent="Mozilla/5.0 (Windows NT 10.0; Win64; x64) AppleWebKit/537.36 (KHTML, like Gecko) Chrome/122.0.0.0 Safari/537.36" etag="2oNiDYMmizdVuYhknXGO" version="24.0.0" type="device">
  <diagram name="Page-1" id="30MqnBOIeB0xsz5yenpp">
    <mxGraphModel dx="2103" dy="4466" grid="1" gridSize="10" guides="1" tooltips="1" connect="1" arrows="1" fold="1" page="1" pageScale="1" pageWidth="827" pageHeight="1169" math="0" shadow="0">
      <root>
        <mxCell id="0" />
        <mxCell id="1" parent="0" />
        <mxCell id="JSNbP3Fe5mPufIV70ukt-22" value="Охранителна система" style="whiteSpace=wrap;html=1;verticalAlign=top;fillColor=#dae8fc;fillStyle=solid;fontStyle=1;fontSize=16;strokeColor=#6c8ebf;" parent="1" vertex="1">
          <mxGeometry x="90" y="-140" width="640" height="250" as="geometry" />
        </mxCell>
        <mxCell id="JSNbP3Fe5mPufIV70ukt-24" style="edgeStyle=orthogonalEdgeStyle;rounded=0;orthogonalLoop=1;jettySize=auto;html=1;entryX=0;entryY=0.5;entryDx=0;entryDy=0;endArrow=none;endFill=0;" parent="1" source="JSNbP3Fe5mPufIV70ukt-21" target="JSNbP3Fe5mPufIV70ukt-23" edge="1">
          <mxGeometry relative="1" as="geometry" />
        </mxCell>
        <mxCell id="JSNbP3Fe5mPufIV70ukt-21" value="Потребител" style="shape=umlActor;verticalLabelPosition=bottom;verticalAlign=top;html=1;outlineConnect=0;" parent="1" vertex="1">
          <mxGeometry x="20" y="-77.5" width="30" height="60" as="geometry" />
        </mxCell>
        <mxCell id="JSNbP3Fe5mPufIV70ukt-26" style="edgeStyle=orthogonalEdgeStyle;rounded=0;orthogonalLoop=1;jettySize=auto;html=1;entryX=0;entryY=0.5;entryDx=0;entryDy=0;dashed=1;endArrow=open;endFill=0;" parent="1" source="JSNbP3Fe5mPufIV70ukt-23" target="JSNbP3Fe5mPufIV70ukt-25" edge="1">
          <mxGeometry relative="1" as="geometry" />
        </mxCell>
        <mxCell id="JSNbP3Fe5mPufIV70ukt-29" value="&amp;lt;&amp;lt;include&amp;gt;&amp;gt;" style="edgeLabel;html=1;align=center;verticalAlign=middle;resizable=0;points=[];fontFamily=Courier New;" parent="JSNbP3Fe5mPufIV70ukt-26" vertex="1" connectable="0">
          <mxGeometry x="0.2493" y="3" relative="1" as="geometry">
            <mxPoint x="-15" y="3" as="offset" />
          </mxGeometry>
        </mxCell>
        <mxCell id="JSNbP3Fe5mPufIV70ukt-23" value="Логване" style="ellipse;whiteSpace=wrap;html=1;" parent="1" vertex="1">
          <mxGeometry x="110" y="-82.5" width="120" height="70" as="geometry" />
        </mxCell>
        <mxCell id="JSNbP3Fe5mPufIV70ukt-25" value="Верификация на креденциите" style="ellipse;whiteSpace=wrap;html=1;" parent="1" vertex="1">
          <mxGeometry x="350" y="-82.5" width="120" height="70" as="geometry" />
        </mxCell>
        <mxCell id="JSNbP3Fe5mPufIV70ukt-31" style="rounded=0;orthogonalLoop=1;jettySize=auto;html=1;exitX=0;exitY=0.5;exitDx=0;exitDy=0;endArrow=open;endFill=0;dashed=1;entryX=1;entryY=1;entryDx=0;entryDy=0;" parent="1" source="JSNbP3Fe5mPufIV70ukt-27" target="JSNbP3Fe5mPufIV70ukt-25" edge="1">
          <mxGeometry relative="1" as="geometry">
            <mxPoint x="470" y="-50" as="targetPoint" />
          </mxGeometry>
        </mxCell>
        <mxCell id="JSNbP3Fe5mPufIV70ukt-33" value="&amp;lt;&amp;lt;extend&amp;gt;&amp;gt;" style="edgeLabel;html=1;align=center;verticalAlign=middle;resizable=0;points=[];fontFamily=Courier New;" parent="JSNbP3Fe5mPufIV70ukt-31" vertex="1" connectable="0">
          <mxGeometry x="-0.0402" y="-2" relative="1" as="geometry">
            <mxPoint x="3" y="4" as="offset" />
          </mxGeometry>
        </mxCell>
        <mxCell id="JSNbP3Fe5mPufIV70ukt-27" value="Съобщение за грешни креденции" style="ellipse;whiteSpace=wrap;html=1;" parent="1" vertex="1">
          <mxGeometry x="590" y="20" width="120" height="70" as="geometry" />
        </mxCell>
        <mxCell id="JSNbP3Fe5mPufIV70ukt-30" style="edgeStyle=orthogonalEdgeStyle;rounded=0;orthogonalLoop=1;jettySize=auto;html=1;exitX=0;exitY=0.5;exitDx=0;exitDy=0;entryX=1;entryY=0.5;entryDx=0;entryDy=0;endArrow=open;endFill=0;dashed=1;" parent="1" source="JSNbP3Fe5mPufIV70ukt-28" target="JSNbP3Fe5mPufIV70ukt-25" edge="1">
          <mxGeometry relative="1" as="geometry" />
        </mxCell>
        <mxCell id="JSNbP3Fe5mPufIV70ukt-32" value="&amp;lt;&amp;lt;extend&amp;gt;&amp;gt;" style="edgeLabel;html=1;align=center;verticalAlign=middle;resizable=0;points=[];fontFamily=Courier New;" parent="JSNbP3Fe5mPufIV70ukt-30" vertex="1" connectable="0">
          <mxGeometry x="0.1043" y="1" relative="1" as="geometry">
            <mxPoint x="16" y="-1" as="offset" />
          </mxGeometry>
        </mxCell>
        <mxCell id="JSNbP3Fe5mPufIV70ukt-28" value="Reroute към табло за управление и популацията му" style="ellipse;whiteSpace=wrap;html=1;" parent="1" vertex="1">
          <mxGeometry x="590" y="-82.5" width="120" height="70" as="geometry" />
        </mxCell>
        <mxCell id="JSNbP3Fe5mPufIV70ukt-35" style="rounded=0;orthogonalLoop=1;jettySize=auto;html=1;exitX=0;exitY=0.5;exitDx=0;exitDy=0;entryX=1;entryY=1;entryDx=0;entryDy=0;endArrow=open;endFill=0;dashed=1;" parent="1" source="JSNbP3Fe5mPufIV70ukt-34" target="JSNbP3Fe5mPufIV70ukt-23" edge="1">
          <mxGeometry relative="1" as="geometry" />
        </mxCell>
        <mxCell id="JSNbP3Fe5mPufIV70ukt-36" value="&amp;lt;&amp;lt;extend&amp;gt;&amp;gt;" style="edgeLabel;html=1;align=center;verticalAlign=middle;resizable=0;points=[];fontFamily=Courier New;" parent="JSNbP3Fe5mPufIV70ukt-35" vertex="1" connectable="0">
          <mxGeometry x="-0.5834" y="-1" relative="1" as="geometry">
            <mxPoint x="-32" y="-18" as="offset" />
          </mxGeometry>
        </mxCell>
        <mxCell id="JSNbP3Fe5mPufIV70ukt-34" value="Съобщение за твърде много неуспешни опити" style="ellipse;whiteSpace=wrap;html=1;" parent="1" vertex="1">
          <mxGeometry x="350" y="20" width="120" height="70" as="geometry" />
        </mxCell>
      </root>
    </mxGraphModel>
  </diagram>
</mxfile>
